<svg width="0" height="0" class="hidden">
  <symbol xmlns="http://www.w3.org/2000/svg" viewBox="0 0 23 20" id="icon-group">
    <path d="M17.0307 18.9995V16.9995C17.0307 15.9386 16.6176 14.9212 15.8822 14.1711C15.1469 13.4209 14.1495 12.9995 13.1096 12.9995H5.26749C4.22756 12.9995 3.23023 13.4209 2.49489 14.1711C1.75955 14.9212 1.34644 15.9386 1.34644 16.9995V18.9995" fill="none" stroke-width="2" stroke-linecap="round" stroke-linejoin="round"></path>
    <path d="M9.1891 8.99991C11.3546 8.99991 13.1101 7.20907 13.1101 4.99995C13.1101 2.79084 11.3546 1 9.1891 1C7.02357 1 5.26807 2.79084 5.26807 4.99995C5.26807 7.20907 7.02357 8.99991 9.1891 8.99991Z" fill="none" stroke-width="2" stroke-linecap="round" stroke-linejoin="round"></path>
    <path d="M21.9319 18.9998V16.9999C21.9312 16.1136 21.6421 15.2526 21.1098 14.5522C20.5775 13.8517 19.8322 13.3514 18.991 13.1299" fill="none" stroke-width="2" stroke-linecap="round" stroke-linejoin="round"></path>
    <path d="M15.0701 1.12988C15.9135 1.35018 16.6611 1.85058 17.1949 2.55218C17.7288 3.25379 18.0186 4.11669 18.0186 5.00485C18.0186 5.89302 17.7288 6.75592 17.1949 7.45752C16.6611 8.15913 15.9135 8.65952 15.0701 8.87982" fill="none" stroke-width="2" stroke-linecap="round" stroke-linejoin="round"></path>
  </symbol>
  <symbol xmlns="http://www.w3.org/2000/svg" viewBox="0 0 11 14" id="icon-lock">
    <path d="M9.33333 4.66667H8.66667V3.33333C8.66667 1.49333 7.17333 0 5.33333 0C3.49333 0 2 1.49333 2 3.33333V4.66667H1.33333C0.6 4.66667 0 5.26667 0 6V12.6667C0 13.4 0.6 14 1.33333 14H9.33333C10.0667 14 10.6667 13.4 10.6667 12.6667V6C10.6667 5.26667 10.0667 4.66667 9.33333 4.66667ZM5.33333 10.6667C4.6 10.6667 4 10.0667 4 9.33333C4 8.6 4.6 8 5.33333 8C6.06667 8 6.66667 8.6 6.66667 9.33333C6.66667 10.0667 6.06667 10.6667 5.33333 10.6667ZM7.4 4.66667H3.26667V3.33333C3.26667 2.19333 4.19333 1.26667 5.33333 1.26667C6.47333 1.26667 7.4 2.19333 7.4 3.33333V4.66667Z" stroke="none"></path>
  </symbol>
  <symbol xmlns="http://www.w3.org/2000/svg" viewBox="0 0 18 18" id="icon-remove">
    <path d="M17.25 9C17.25 13.5563 13.5563 17.25 9 17.25C4.44365 17.25 0.75 13.5563 0.75 9C0.75 4.44365 4.44365 0.75 9 0.75C13.5563 0.75 17.25 4.44365 17.25 9Z" fill="none" stroke-width="1.5" stroke-linecap="round" stroke-linejoin="round"></path>
    <path fill-rule="evenodd" clip-rule="evenodd" d="M12.2301 6.83013C12.523 6.53724 12.523 6.06237 12.2301 5.76947C11.9372 5.47658 11.4624 5.47658 11.1695 5.76947L8.9998 7.93914L6.83013 5.76947C6.53724 5.47658 6.06237 5.47658 5.76947 5.76947C5.47658 6.06237 5.47658 6.53724 5.76947 6.83013L7.93914 8.9998L5.76947 11.1695C5.47658 11.4624 5.47658 11.9372 5.76947 12.2301C6.06237 12.523 6.53724 12.523 6.83013 12.2301L8.9998 10.0605L11.1695 12.2301C11.4624 12.523 11.9372 12.523 12.2301 12.2301C12.523 11.9372 12.523 11.4624 12.2301 11.1695L10.0605 8.9998L12.2301 6.83013Z" stroke="none"></path>
  </symbol>
  <symbol xmlns="http://www.w3.org/2000/svg" viewBox="0 0 18 18" id="icon-add">
    <path d="M17.25 9C17.25 13.5563 13.5563 17.25 9 17.25C4.44365 17.25 0.75 13.5563 0.75 9C0.75 4.44365 4.44365 0.75 9 0.75C13.5563 0.75 17.25 4.44365 17.25 9Z" fill="none" stroke-width="1.5" stroke-linecap="round" stroke-linejoin="round"></path>
    <path fill-rule="evenodd" clip-rule="evenodd" d="M9.74891 5.18162C9.74891 4.76741 9.41312 4.43162 8.99891 4.43162C8.5847 4.43162 8.24891 4.76741 8.24891 5.18162L8.24891 8.25L5.18053 8.25C4.76632 8.25 4.43053 8.58579 4.43053 9C4.43053 9.41421 4.76632 9.75 5.18053 9.75L8.24891 9.75L8.24891 12.8184C8.24891 13.2326 8.5847 13.5684 8.99891 13.5684C9.41312 13.5684 9.74891 13.2326 9.74891 12.8184L9.74891 9.75H12.8173C13.2315 9.75 13.5673 9.41421 13.5673 9C13.5673 8.58579 13.2315 8.25 12.8173 8.25H9.74891L9.74891 5.18162Z" stroke="none"></path>
  </symbol>
</svg>